<?xml version="1.0" encoding="UTF-8"?>
<svg id="Layer_2" data-name="Layer 2" xmlns="http://www.w3.org/2000/svg" xmlns:xlink="http://www.w3.org/1999/xlink" viewBox="0 0 89.08 99.39">
  <defs>
    <style>
      .cls-1 {
        fill: url(#linear-gradient);
      }

      .cls-1, .cls-2, .cls-3 {
        stroke-width: 0px;
      }

      .cls-2 {
        fill: none;
      }

      .cls-3 {
        fill: url(#linear-gradient-2);
      }

      .cls-4 {
        clip-path: url(#clippath);
      }
    </style>
    <linearGradient id="linear-gradient" x1="44.05" y1="69.31" x2="44.05" y2="0" gradientUnits="userSpaceOnUse">
      <stop offset="0" stop-color="#2f2d63"/>
      <stop offset="1" stop-color="#d74f7c"/>
    </linearGradient>
    <linearGradient id="linear-gradient-2" x1="15.13" y1="40.7" x2="59.03" y2="116.74" gradientUnits="userSpaceOnUse">
      <stop offset="0" stop-color="#d34d7d"/>
      <stop offset="1" stop-color="#3c2f65"/>
    </linearGradient>
    <clipPath id="clippath">
      <path class="cls-2" d="M7.02-2v73.31h74.07V-2H7.02ZM59.23,32.39c-3.46,1.44-4.13,3.84-2.5,7.39l2.33,5.04-.36.1c-3.14-1.06-8.28-1.58-16.65-2.17-3.94-.28-7.36-.73-10.46-1.36l.75-1.61c1.63-3.55.96-5.95-2.5-7.39v-.19h29.37v.19Z"/>
    </clipPath>
  </defs>
  <g id="Layer_1-2" data-name="Layer 1">
    <g>
      <path class="cls-1" d="M21.78,65.76c-2.02,0-3.74.77-4.9,2.5l-7.87-26.78.48-.29c9.7,9.98,24.09,14.78,37.05,14.78,9.98,0,16.7-2.11,16.7-7.3s-6.14-5.86-21.12-6.91c-13.34-.96-30.53-4.42-30.53-20.25C11.61,7.49,27.45,0,45.59,0c11.71,0,17.09,2.78,20.93,2.78,1.92,0,3.07-.48,4.51-2.21l5.86,25.05-.38.19c-7.49-8.64-19.39-12.67-31.68-12.67-10.18,0-17.66,2.69-17.66,7.49,0,5.18,9.7,5.95,17.85,6.62,16.61,1.34,34.08,4.61,34.08,20.64,0,13.63-14.11,21.41-31.68,21.41-12.77,0-22.08-3.55-25.63-3.55Z"/>
      <path class="cls-3" d="M80.83,91.81l-24.09-52.03c-1.63-3.55-.96-5.95,2.5-7.39v-.19h-29.37v.19c3.46,1.44,4.13,3.84,2.5,7.39l-24.09,52.03c-1.63,3.55-4.8,5.95-8.25,7.39v.19h27.26v-.19c-3.46-1.44-4.22-3.84-2.69-7.49l3.26-7.39h33.41l3.26,7.39c1.54,3.65.77,6.05-2.69,7.49v.19h27.26v-.19c-3.46-1.44-6.62-3.84-8.26-7.39ZM33.69,71.27h0l10.85-24.48,10.85,24.48h0l5.86,13.05s-33.41,0-27.55-13.06Z"/>
      <g class="cls-4">
        <path class="cls-1" d="M21.78,65.76c-2.02,0-3.74.77-4.9,2.5l-7.87-26.78.48-.29c9.7,9.98,24.09,14.78,37.05,14.78,9.98,0,16.7-2.11,16.7-7.3s-6.14-5.86-21.12-6.91c-13.34-.96-30.53-4.42-30.53-20.25C11.61,7.49,27.45,0,45.59,0c11.71,0,17.09,2.78,20.93,2.78,1.92,0,3.07-.48,4.51-2.21l5.86,25.05-.38.19c-7.49-8.64-19.39-12.67-31.68-12.67-10.18,0-17.66,2.69-17.66,7.49,0,5.18,9.7,5.95,17.85,6.62,16.61,1.34,34.08,4.61,34.08,20.64,0,13.63-14.11,21.41-31.68,21.41-12.77,0-22.08-3.55-25.63-3.55Z"/>
      </g>
    </g>
  </g>
</svg>