<svg width="58" height="24" viewBox="0 0 58 24" fill="none" xmlns="http://www.w3.org/2000/svg">
<path d="M33.0916 1.39195C31.9582 1.99261 31.5502 2.98428 31.5502 5.72695C31.5502 5.72695 32.1226 5.17728 32.9641 4.86845C33.4828 4.68037 33.9715 4.41791 34.4147 4.08928C35.3724 3.38945 35.5056 2.49695 35.5056 0.983948C35.5056 0.983948 33.9387 0.938612 33.0916 1.39195ZM26.4361 2.04078C25.5294 2.85111 25.2517 4.13461 25.2517 4.13461L22.1974 15.8674L19.6786 6.24828C19.4321 5.24245 18.9816 3.95895 18.2761 3.11178C17.3977 2.04078 15.6014 1.97561 15.4002 1.97561C15.2076 1.97561 13.3914 2.04078 12.4932 3.12878C11.7962 3.98728 11.3429 5.25661 11.0964 6.26811L8.57757 15.8873L5.55724 4.13745C5.55724 4.13745 5.29657 2.83695 4.3729 2.04361C2.87407 0.726114 0.649902 1.00378 0.649902 1.00378L6.45257 23.0018C6.45257 23.0018 8.37074 23.1491 9.3284 22.6448C10.5779 22.0101 11.1956 21.5086 11.9606 18.4996C12.6434 15.8363 14.5446 8.00495 14.7202 7.43545C14.8024 7.15778 14.9186 6.49478 15.4031 6.49478C15.9102 6.49478 16.0094 7.14361 16.0859 7.43545C16.2672 7.98795 18.1514 15.8363 18.8512 18.4996C19.6106 21.4888 20.2141 21.9761 21.4834 22.6448C22.4411 23.1491 24.3592 23.0018 24.3592 23.0018L30.1619 1.01795C30.1562 1.01795 27.9264 0.737446 26.4361 2.04078ZM35.5056 4.59078C35.5056 4.59078 35.1401 5.14328 34.3156 5.63061C33.7829 5.92528 33.2757 6.13495 32.7232 6.39845C31.8081 6.83478 31.5502 7.33911 31.5502 8.08428V23.0046C31.5502 23.0046 33.0292 23.1831 33.9699 22.7099C35.2052 22.0809 35.4801 21.4774 35.5027 18.7319L35.5056 4.59078ZM49.9896 12.0481L57.3534 1.06895C57.3534 1.06895 54.2481 0.533447 52.7039 1.94445C51.7122 2.83695 50.6129 4.45195 50.6129 4.45195L47.9156 8.37895C47.7654 8.57445 47.6209 8.80395 47.3489 8.80395C47.0684 8.80395 46.8927 8.59145 46.7766 8.37895L44.0509 4.46328C44.0509 4.46328 42.9601 2.85395 41.9542 1.95861C40.4242 0.544781 37.3047 1.08028 37.3047 1.08028L44.6799 12.0311L37.3047 22.9621C37.3047 22.9621 40.5517 23.3843 42.0874 21.9704C43.0791 21.0779 44.0367 19.5989 44.0367 19.5989L46.7284 15.6804C46.8786 15.4878 47.0231 15.2639 47.2951 15.2639C47.5784 15.2639 47.7512 15.4764 47.8674 15.6804L50.5647 19.5989C50.5647 19.5989 51.5706 21.0439 52.5481 21.9704C54.0724 23.3843 57.2712 22.9621 57.2712 22.9621L49.9896 12.0481Z" fill="black"/>
</svg>
